<svg width="2500" height="917" viewBox="0 0 2500 917" fill="none" xmlns="http://www.w3.org/2000/svg">
<path d="M0 339.762L111.317 528.073L155.844 485.402L34.3228 304.511L0 339.762Z" fill="url(#paint0_linear_3_2)"/>
<path d="M1656.77 191.339L1652.13 216.385L1705.01 198.76L1698.52 168.148L1656.77 191.339Z" fill="#0071B9"/>
<path d="M1345.08 21.5798L1173.47 218.24L1223.56 204.326L1386.83 0.243958L1345.08 21.5798Z" fill="url(#paint1_linear_3_2)"/>
<path d="M2264.38 290.596L2306.12 268.333L2294.06 374.084L2264.38 290.596Z" fill="#1D2C5E"/>
<path d="M2001.86 358.314L2039.89 366.663L2087.2 343.472L2045.45 327.702L2001.86 358.314Z" fill="#1D2C5E"/>
<path d="M710.575 246.997L716.141 368.519L769.017 348.11L753.247 223.806L710.575 246.997Z" fill="url(#paint2_linear_3_2)"/>
<path d="M2042.67 209.891L2000.93 233.083L2001.86 358.314L2044.53 336.979L2057.51 275.754L2042.67 209.891Z" fill="url(#paint3_linear_3_2)"/>
<path d="M2037.11 366.663L1990.72 778.537L2064.94 763.695L2078.85 344.4L2037.11 366.663Z" fill="#312370"/>
<path d="M2127.09 798.018L2128.94 853.676L2270.87 899.131L2313.54 876.867L2173.47 768.333L2032.47 756.274L1990.72 778.537L2127.09 798.018Z" fill="#21386E"/>
<path d="M1600.19 699.687L1634.51 681.135L1657.7 721.951L1690.17 704.326L1696.66 758.129L1903.53 795.235L1944.34 772.044L1659.55 598.574L1457.33 632.897L1418.37 670.93L1600.19 699.687Z" fill="#21386E"/>
<path d="M1534.32 193.194L1492.58 216.385L1418.37 670.93L1460.11 648.667L1531.54 393.565L1534.32 193.194Z" fill="url(#paint4_linear_3_2)"/>
<path d="M1204.08 254.418L1170.69 272.044L1173.47 283.175L1252.32 233.083L1218 195.977L1173.47 218.24L1204.08 254.418Z" fill="#1D2C5E"/>
<path d="M1294.06 791.524L957.328 624.548L999.072 592.081L1335.81 768.333L1294.06 791.524Z" fill="#21386E"/>
<path d="M988.868 170.003L937.848 266.478L991.651 250.708L1030.61 146.812L988.868 170.003Z" fill="#1D2C5E"/>
<path d="M525.046 569.817L482.375 599.502C482.375 599.502 491.651 647.739 503.711 681.135C515.77 714.53 543.599 741.431 543.599 741.431C562.152 759.057 583.488 772.044 608.534 779.465C655.844 793.379 709.647 784.103 756.03 754.418C768.089 746.997 784.787 734.938 794.991 724.734C749.536 752.563 525.046 569.817 525.046 569.817Z" fill="url(#paint5_linear_3_2)"/>
<path d="M756.03 359.242L794.991 792.452L956.401 769.261L999.072 746.997L799.629 333.268L758.813 347.183L716.141 368.519L756.03 359.242Z" fill="#1D2C5E"/>
<path d="M153.061 509.52L333.024 916.756L503.711 862.025L545.455 834.196L191.095 463.138L146.568 490.04L111.317 528.073L153.061 509.52Z" fill="url(#paint6_linear_3_2)"/>
<path d="M1933.21 701.543L1935.99 721.951C1950.83 720.096 1965.68 718.24 1979.59 713.602C1995.36 708.036 2028.76 693.194 2040.82 682.062C2035.25 683.917 1957.33 704.326 1933.21 701.543Z" fill="#1D2C5E"/>
<path d="M1329.31 597.647L1335.81 630.114C1370.13 624.548 1399.81 612.489 1429.5 594.864C1448.05 583.732 1467.53 567.962 1474.03 563.324C1469.39 566.107 1329.31 597.647 1329.31 597.647Z" fill="#1D2C5E"/>
<path d="M379.861 877.925L366.874 848.24L196.187 467.906L192.477 460.485L185.056 464.196L179.49 466.979L148.878 481.821C144.239 474.4 136.818 461.413 132.18 453.064L63.5343 337.109L45.9091 306.496L75.5937 287.943C103.423 270.318 134.963 253.621 170.213 238.778C238.859 210.021 308.432 194.251 372.44 194.251C393.775 194.251 414.184 196.107 432.736 198.89C464.276 202.6 493.961 212.804 518.08 229.502C554.258 249.91 583.015 281.45 598.785 318.556C611.772 349.168 614.555 385.346 606.206 422.452L601.568 444.715L620.121 431.728C632.18 422.452 645.167 415.031 659.082 409.465C683.2 399.261 708.247 393.695 733.293 393.695C757.412 393.695 779.675 398.333 800.083 407.609L813.07 413.175L812.143 398.333L806.577 336.181L805.649 325.977L796.373 328.76L767.616 336.181L762.978 230.429L974.48 162.711L972.625 245.272L988.395 248.982L1034.78 160.856L1173 283.305L1178.56 288.871L1184.13 283.305C1202.68 265.68 1225.87 250.838 1250.92 240.634L1261.12 235.995L1253.7 226.719L1228.65 196.107L1387.28 13.3608L1470.77 137.665L1343.68 206.311L1315.85 221.153L1348.32 222.081C1408.62 223.008 1462.42 248.982 1498.6 293.509L1511.59 310.207L1519.94 320.411L1506.02 335.253L1496.74 345.457L1465.2 379.78L1459.64 386.274L1466.13 391.84L1495.82 418.741L1506.95 428.945L1509.73 414.103L1520.86 343.602L1523.65 325.049L1526.43 306.496L1543.13 201.673H1700.83L1701.75 194.251L1704.54 176.626H1841.83L1875.22 386.274L1877.08 400.188L1888.21 391.84C1902.12 381.635 1916.97 374.214 1932.74 367.721C1954.07 359.372 1975.41 355.661 1997.67 355.661C2023.65 355.661 2048.69 361.227 2070.03 373.287C2070.96 373.287 2070.96 374.214 2072.81 375.142L2083.01 378.853L2083.94 367.721L2086.73 344.53L2087.65 337.109L2080.23 335.253L2052.4 328.76L2051.48 219.298L2263.91 265.68L2279.68 344.53H2296.37L2313.07 276.812L2490.25 319.483L2308.43 865.865L2179.49 825.049L2178.56 774.956V767.535L2171.14 766.608L2042.2 748.055L2049.62 682.192L2051.48 666.422L2037.56 673.843C2031.07 677.554 2024.57 680.337 2018.08 682.192C1996.74 690.541 1975.41 694.251 1954.07 694.251C1947.58 694.251 1942.01 694.251 1935.52 693.324L1924.39 692.396L1926.24 703.528L1935.52 761.042L1747.21 727.647L1737 642.303L1734.22 614.474L1721.23 638.593L1699.9 680.337L1660.01 607.053L1647.95 584.789L1644.24 609.836L1635.89 666.422L1470.77 640.448L1483.76 562.526L1486.54 544.901L1470.77 554.177C1443.87 569.947 1412.33 582.934 1376.15 591.283C1363.16 594.066 1350.18 596.849 1336.26 597.776L1328.84 598.704V754.548L1004.17 594.066L992.106 588.5V739.706L846.466 761.042L839.972 695.179L838.117 677.554L825.13 689.613C805.649 708.166 784.313 723.008 761.122 733.212C737.004 743.416 711.957 748.982 687.839 748.982C662.792 748.982 639.601 743.417 618.265 734.14C579.304 715.587 550.547 681.264 538.488 637.665C532.922 617.257 531.067 595.921 533.85 573.658L536.633 550.467L519.935 567.164C507.876 578.296 494.889 589.428 480.974 599.632L476.336 603.342L478.191 608.908L527.356 796.292L535.705 829.687L503.237 839.891L411.401 869.576L379.861 877.925ZM420.677 374.214C416.039 374.214 411.401 374.214 405.835 375.142L399.341 376.07L390.065 377.925L392.848 387.201L394.703 392.767L420.677 479.038L423.46 487.387L427.171 499.446L436.447 491.097L442.941 485.532C468.915 462.34 477.263 439.149 471.698 409.465C467.987 391.84 455 383.491 446.651 379.78C441.085 376.07 430.881 374.214 420.677 374.214ZM1127.54 376.997L1110.84 392.767L1067.24 434.511L1057.97 443.788L1070.03 448.426L1116.41 466.051L1130.32 471.617L1127.54 456.775C1123.83 437.294 1122.9 417.814 1124.76 399.261L1127.54 376.997ZM1316.78 328.76C1299.16 328.76 1281.53 336.181 1269.47 350.096C1250.92 370.504 1247.21 401.116 1260.19 425.235L1263.91 431.728L1269.47 441.932L1277.82 432.656L1283.39 427.09L1347.39 354.734L1352.03 349.168L1360.38 339.891L1349.25 335.253L1341.83 332.47C1332.55 330.615 1325.13 328.76 1316.78 328.76Z" fill="#FFCB05"/>
<path d="M1413.73 436.237L1411.87 438.092C1412.8 438.092 1413.73 437.164 1413.73 436.237Z" fill="#7D7F68"/>
<path d="M1469.39 386.144L1500.93 351.821L1489.8 362.953V362.025L1480.52 372.229L1448.98 405.624L1478.66 432.526L1484.23 399.131L1499.07 412.118L1469.39 386.144Z" fill="#7D7F68"/>
<path d="M1469.39 386.144L1499.07 412.118L1510.2 341.617L1500.93 351.821L1469.39 386.144Z" fill="#7D7F68"/>
<path d="M1249.54 470.559C1252.32 473.342 1249.54 471.487 1252.32 473.342L1271.8 459.428C1269.02 457.572 1266.23 454.789 1263.45 452.934C1235.62 426.96 1243.04 369.446 1260.67 337.906C1212.43 376.867 1215.21 436.237 1249.54 470.559Z" fill="#C7A008"/>
<path d="M1484.23 503.027C1451.76 529.929 1415.58 546.626 1367.35 558.686C1357.14 561.468 1346.01 563.324 1336.73 563.324C1259.74 570.745 1195.73 535.494 1171.61 478.908C1168.83 472.415 1166.05 464.993 1164.19 457.572C1153.06 409.335 1162.34 366.663 1186.46 332.34C1189.24 328.63 1191.09 325.847 1193.88 323.064C1192.95 323.992 1191.09 324.919 1190.17 325.847C1180.89 334.196 1172.54 342.545 1166.05 352.749C1141.93 386.144 1132.65 429.743 1143.78 477.98C1145.64 485.402 1147.5 492.823 1151.21 499.316C1175.32 556.83 1240.26 592.081 1316.33 584.66C1326.53 583.732 1336.73 581.877 1347.87 579.094C1396.1 567.034 1433.21 550.337 1464.75 523.435C1472.17 516.942 1480.52 509.52 1487.94 502.099L1487.01 501.172C1485.16 502.099 1484.23 502.099 1484.23 503.027Z" fill="#C7A008"/>
<path d="M943.414 357.387L1028.76 236.793L1025.05 234.01L942.486 349.966L943.414 357.387Z" fill="#C7A008"/>
<path d="M1510.2 341.617L1499.07 412.118L1484.23 399.131L1478.66 432.526L1448.98 405.624L1480.52 372.229L1489.8 362.025V362.953L1500.93 351.821L1510.2 341.617Z" fill="#C7A008"/>
<path d="M1404.45 143.101L1434.14 130.114L1379.41 59.6132L1361.78 85.5872L1404.45 143.101Z" fill="#C7A008"/>
<path d="M573.284 317.498C434.137 148.667 184.601 239.576 95.5474 318.426L99.2579 324.919C119.666 312.86 141.93 302.656 164.193 292.452C253.247 254.418 338.59 243.287 406.308 255.346C430.427 258.129 455.473 265.55 477.737 280.392C508.349 298.018 531.54 322.136 545.455 353.676C569.573 409.335 548.238 483.546 491.651 544.771C563.08 478.908 612.245 415.828 573.284 317.498Z" fill="#C7A008"/>
<path d="M856.215 514.159C855.288 511.376 855.288 507.665 854.36 504.882C846.939 477.053 830.241 454.789 807.978 439.947C772.727 415.828 722.635 411.19 673.469 431.598C647.495 442.73 625.232 460.355 606.679 480.763C620.594 468.704 636.364 459.428 653.061 452.007C702.226 430.671 752.319 436.237 787.57 460.355C809.833 475.198 826.531 497.461 833.952 525.29C834.879 528.073 835.807 531.784 835.807 534.567C837.662 545.699 838.59 555.903 838.59 567.034C837.662 599.502 825.603 631.969 806.122 659.799C803.34 664.437 799.629 668.148 795.918 672.786C807.05 662.582 817.254 652.378 825.603 640.318C846.011 612.489 857.143 580.021 858.998 547.554C858.998 536.422 858.071 525.29 856.215 514.159Z" fill="#C7A008"/>
<path d="M719.852 473.342C719.852 473.342 740.26 452.934 739.332 452.934C714.286 452.006 703.154 476.125 702.226 477.981C707.792 475.198 713.358 474.27 719.852 473.342Z" fill="#C7A008"/>
<path d="M767.161 502.099C768.089 505.81 769.017 508.593 769.017 512.303C769.017 517.869 768.089 522.507 765.306 527.146C769.017 525.29 798.701 510.448 787.57 480.763C788.497 482.619 766.234 502.099 767.161 502.099Z" fill="#C7A008"/>
<path d="M652.134 519.724C652.134 507.665 673.469 477.053 679.963 466.849C646.568 488.185 631.725 516.942 631.725 539.205C631.725 578.166 666.048 609.706 706.865 609.706C726.345 609.706 761.596 599.502 784.787 562.396C772.727 570.745 742.115 589.298 725.417 589.298C684.601 589.298 652.134 558.686 652.134 519.724Z" fill="#C7A008"/>
<path d="M938.776 554.975L939.703 711.747L964.75 713.602L959.184 534.567L938.776 554.975Z" fill="#C7A008"/>
<path d="M795.918 255.346V269.261L914.657 234.01L923.006 385.216L943.414 357.387L938.775 206.181L795.918 255.346Z" fill="#C7A008"/>
<path d="M1153.06 309.149L1042.67 207.109L1028.76 236.793L1127.09 328.63L1153.06 309.149Z" fill="#C7A008"/>
<path d="M1136.36 499.316L1005.57 455.717L987.013 476.125L1116.88 528.073C1131.73 555.903 1153.99 580.021 1181.82 596.719C1208.72 613.417 1240.26 623.621 1272.73 626.404V690.411L1293.14 700.615L1299.63 604.14L1136.36 499.316Z" fill="#C7A008"/>
<path d="M1346.01 481.691C1378.48 474.27 1396.1 457.572 1412.8 439.019C1400.74 449.224 1341.37 462.211 1331.17 464.993L1311.69 486.329C1320.04 486.329 1334.88 484.474 1346.01 481.691Z" fill="#C7A008"/>
<path d="M1287.57 259.057C1228.2 266.478 1197.59 316.571 1192.95 322.136C1215.21 303.584 1242.11 289.669 1272.73 283.175C1346.01 265.55 1410.02 287.814 1449.91 336.979L1474.95 316.571C1435.06 268.333 1360.85 241.431 1287.57 259.057Z" fill="#C7A008"/>
<path d="M1486.09 501.172C1493.51 495.606 1505.57 489.112 1512.99 481.691L1434.14 411.19C1427.64 418.611 1423.01 430.671 1415.58 436.237L1486.09 501.172Z" fill="#C7A008"/>
<path d="M1891.47 690.411C1808.91 621.765 1813.54 476.125 1854.36 429.743L1818.18 200.615L1738.4 210.819L1734.69 231.227H1794.99L1827.46 439.019C1786.64 485.402 1767.16 547.554 1780.15 605.068C1790.35 649.595 1818.18 684.845 1857.14 705.253C1860.85 707.109 1865.49 708.964 1869.2 710.819L1870.13 713.602L1894.25 717.313C1893.32 718.24 1896.1 692.266 1891.47 690.411Z" fill="#C7A008"/>
<path d="M1573.28 234.01L1569.57 254.418H1660.48L1687.38 401.914L1707.79 381.506L1686.46 225.661L1573.28 234.01Z" fill="#C7A008"/>
<path d="M1729.13 519.724L1699.44 595.791L1706.86 616.199L1748.61 500.244L1729.13 519.724Z" fill="#C7A008"/>
<path d="M1641.93 472.415L1621.52 492.823L1599.26 630.114L1620.59 637.535L1641.93 472.415Z" fill="#C7A008"/>
<path d="M2051.02 427.888C2063.08 436.237 2073.28 447.368 2080.71 460.355C2087.2 470.559 2090.91 480.763 2094.62 493.75C2104.82 535.494 2092.76 580.021 2066.79 615.272C2064.01 618.982 2061.22 622.693 2058.44 625.476C2068.65 616.199 2198.52 520.652 2072.36 395.42C1933.21 349.966 1880.33 439.947 1875.7 446.441C1890.54 434.381 1907.24 423.25 1925.79 416.756C1972.17 398.203 2018.55 404.697 2051.02 427.888Z" fill="#C7A008"/>
<path d="M1981.45 437.164C1981.45 438.092 2001.86 416.756 2001.86 416.756C1976.81 417.684 1964.75 429.743 1966.6 435.309C1964.75 437.164 1963.82 439.947 1962.89 441.802C1967.53 439.019 1977.74 437.164 1981.45 437.164Z" fill="#C7A008"/>
<path d="M2027.83 468.704C2028.76 472.415 2028.76 475.198 2028.76 478.908C2028.76 483.546 2026.9 488.185 2025.05 491.895C2028.76 490.04 2058.44 480.763 2047.31 447.368C2048.24 449.224 2026.9 468.704 2027.83 468.704Z" fill="#C7A008"/>
<path d="M1961.97 573.528C1989.8 574.455 2021.34 557.758 2043.6 527.146C1987.01 539.205 1926.72 443.658 1932.28 434.381C1910.95 450.151 1891.47 479.836 1890.54 501.172C1888.68 540.133 1921.15 571.673 1961.97 573.528Z" fill="#C7A008"/>
<path d="M2274.58 821.209L2287.57 829.558L2450.83 339.762L2328.39 311.932L2327.46 340.689L2425.79 362.025L2274.58 821.209Z" fill="#C7A008"/>
<path d="M2080.71 259.057L2081.63 286.886L2211.5 312.86L2261.6 550.337L2282 529.929L2233.77 289.669L2080.71 259.057Z" fill="#C7A008"/>
<path d="M2180.89 529.929L2144.71 732.155L2165.12 738.648L2201.3 509.52L2180.89 529.929Z" fill="#C7A008"/>
<path d="M495.362 806.366L435.065 585.587L412.802 601.357L469.388 811.932L495.362 806.366Z" fill="#C7A008"/>
<path d="M479.592 475.198C465.677 490.04 434.137 518.797 416.512 529.929L405.38 495.606L382.189 419.539L367.347 368.519L352.505 387.071L367.347 438.092L390.538 513.231L401.67 547.554C426.716 533.639 461.967 503.955 479.592 475.198Z" fill="#C7A008"/>
<path d="M1340.45 344.4C1320.96 336.979 1294.06 338.834 1279.22 355.532C1275.51 359.242 1269.02 368.519 1267.16 373.157C1281.08 362.025 1307.05 359.242 1322.82 365.736L1340.45 344.4Z" fill="#7D7F68"/>
<path d="M462.894 413.045C461.039 401.914 449.907 392.637 444.341 389.854C435.065 385.216 417.44 384.289 405.38 387.071C407.236 394.493 410.019 403.769 410.946 407.48C415.584 408.407 423.933 409.335 428.571 411.19C434.137 413.973 443.414 419.539 445.269 431.598C448.052 446.441 447.124 461.283 440.631 472.415C458.256 455.717 466.605 437.164 462.894 413.045Z" fill="#7D7F68"/>
<path d="M493.033 412.248C484.685 367.721 426.243 342.674 367.802 374.214L382.644 425.235L405.835 501.302L416.967 535.624C460.566 508.723 504.165 474.4 493.033 412.248ZM435.52 481.821C429.026 461.413 415.111 416.886 415.111 416.886C415.111 416.886 412.328 407.61 408.618 396.478C420.677 394.622 432.737 395.55 442.013 400.188C447.579 402.971 456.855 408.537 458.711 420.596C464.276 444.715 455.928 463.268 435.52 481.821Z" fill="#3C5AA6"/>
<path d="M1370.58 341.747C1338.12 312.062 1288.02 313.917 1258.34 346.385C1228.66 378.852 1230.51 428.945 1262.98 458.63C1265.76 461.413 1268.54 463.268 1271.33 465.123L1376.15 346.385C1374.3 345.457 1372.44 343.602 1370.58 341.747ZM1272.25 425.235C1262.05 406.682 1263.91 382.563 1279.68 365.865C1294.52 350.096 1316.78 345.457 1336.26 352.878L1272.25 425.235Z" fill="#3567B0"/>
<path d="M1510.2 328.63L1452.69 384.289L1507.42 433.454L1510.2 328.63Z" fill="#1E2D5F"/>
<path d="M2047.31 448.296C2048.24 452.006 2048.24 455.717 2048.24 459.428C2047.31 481.691 2026.9 498.389 2001.86 497.461C1976.81 496.533 1957.33 477.981 1958.26 455.717C1959.18 435.309 1977.74 418.611 2000 417.684C1995.36 416.756 1990.72 415.828 1986.09 415.828C1944.34 413.973 1910.95 443.658 1909.09 479.836C1907.24 518.797 1938.78 551.264 1979.59 552.192C2021.34 554.047 2054.73 524.363 2056.59 485.402C2059.37 472.415 2054.73 459.428 2047.31 448.296Z" fill="#3466AF"/>
<path d="M789.425 492.823C789.425 515.086 769.017 532.712 744.898 532.712C719.852 532.712 700.371 515.086 700.371 492.823C700.371 472.415 717.996 454.789 741.187 452.934C736.549 452.006 731.911 452.007 727.273 452.007C685.529 452.007 653.061 482.619 653.061 519.724C653.061 558.686 685.529 589.298 726.345 589.298C768.089 589.298 800.557 558.686 800.557 519.724C800.557 505.81 795.918 493.75 788.497 482.619C788.497 485.402 789.425 489.112 789.425 492.823Z" fill="url(#paint7_linear_3_2)"/>
<path d="M2305.65 268.463L2287.1 344.53L2270.4 260.114L2042.2 210.021L2044.05 337.109L2078.38 344.53L2075.59 367.721C2075.59 367.721 2074.67 367.721 2074.67 366.793C2031.99 344.53 1979.12 341.747 1929.95 361.227C1913.26 367.721 1897.49 376.07 1883.57 386.274L1849.25 169.205H1698.04L1694.33 194.251H1534.78L1516.22 305.569L1503.24 288.871C1464.28 241.561 1408.62 215.587 1346.47 213.732L1481.9 141.376L1387.28 0.37384L1216.6 197.034L1246.28 233.212C1219.38 244.344 1196.19 259.186 1176.71 277.739L1030.14 147.869L979.119 245.272L980.974 150.652L751.846 223.936L758.34 346.385L797.301 336.181L802.866 398.333C758.34 377.925 704.536 378.852 655.371 400.188C640.529 406.682 626.614 414.103 614.555 423.379C622.904 385.346 621.048 348.24 606.206 314.845C589.508 275.884 558.896 242.489 522.718 222.081C496.744 204.455 466.132 194.251 433.664 190.541C354.814 176.626 259.267 190.541 165.575 230.429C131.252 245.272 98.7848 261.969 70.0278 280.522L33.8497 303.713L56.1132 340.819L124.759 457.702L146.095 492.953L183.2 474.4L188.766 471.617L359.453 851.951L376.15 888.129L414.184 876.07L506.02 846.385L546.837 833.398L536.633 792.582L487.468 605.198C501.382 594.994 514.369 583.862 526.429 571.802C523.646 594.066 525.501 617.257 531.067 638.593C544.054 684.047 573.738 720.225 615.482 739.706C660.009 761.042 714.74 761.042 764.833 739.706C789.879 728.574 813.071 713.732 831.623 694.251L838.117 769.391L999.527 745.272V600.559L1336.26 767.535V607.053C1350.18 606.125 1363.16 603.342 1377.08 600.559C1414.18 591.283 1445.72 579.224 1474.48 562.526L1460.57 648.797L1642.38 677.554L1652.59 611.691L1699.9 699.817L1728.65 644.159L1738.86 735.995L1944.8 772.174L1933.66 702.6C1961.49 705.383 1991.18 701.673 2019.93 691.468C2026.43 688.686 2033.85 685.903 2039.42 682.192L2031.07 756.404L2168.36 775.884L2169.29 832.47L2312.14 876.997L2498.6 315.773L2305.65 268.463ZM1500.45 351.951L1509.73 341.747L1498.6 412.248L1468.91 385.346L1500.45 351.951ZM1379.86 62.526L1429.95 130.244L1287.1 200.745L1276.89 185.903C1276.89 186.83 1379.86 62.526 1379.86 62.526ZM434.592 585.717L491.178 804.641L399.341 834.326L210.102 411.32C199.898 416.886 180.417 426.162 163.72 434.511L95.0742 318.556C121.976 300.93 152.588 286.088 184.128 272.173C273.182 234.14 358.525 223.008 426.243 235.068C450.362 237.851 475.408 245.272 497.672 260.114C528.284 277.739 551.475 301.858 565.39 333.398C598.785 409.465 544.054 518.927 434.592 585.717ZM858.525 546.756C857.597 579.224 845.538 611.691 825.13 639.52C805.649 666.422 779.675 687.758 748.135 701.673C668.358 735.995 588.581 701.673 567.245 625.606C546.837 552.322 595.074 465.123 672.069 431.728C721.234 410.392 771.327 415.958 806.577 440.077C828.84 454.919 845.538 477.183 852.959 505.012C853.887 507.795 854.814 511.506 854.814 514.288C858.525 525.42 858.525 536.552 858.525 546.756ZM1293.59 701.673L958.711 534.697L959.638 710.021L873.367 722.081L866.874 649.724C893.776 604.27 903.052 549.539 889.137 500.374C881.716 473.472 867.802 449.353 848.321 430.801L836.262 283.305L797.301 293.509L795.445 256.404L934.592 214.66L942.941 357.517L1044.98 213.732L1146.09 309.279L1006.02 456.775L1137.75 508.723C1152.59 536.552 1174.85 559.743 1202.68 577.368C1229.58 594.066 1261.12 604.27 1293.59 607.053V701.673ZM1120.12 458.63L1073.74 441.005L1117.34 399.261C1114.55 418.741 1115.48 438.222 1120.12 458.63ZM1483.76 503.157C1451.29 530.058 1415.11 546.756 1366.87 558.815C1356.67 561.598 1345.54 563.454 1336.26 563.454C1259.27 570.875 1195.26 535.624 1171.14 479.038C1168.36 472.545 1165.58 465.123 1163.72 457.702C1152.59 409.465 1161.86 366.793 1185.98 332.47C1192.48 322.266 1200.83 313.917 1210.1 305.569C1232.37 285.16 1261.12 271.246 1293.59 262.897C1366.87 245.272 1430.88 267.535 1470.77 315.773L1331.62 464.196C1340.9 466.051 1355.74 463.268 1366.87 460.485C1400.27 452.136 1418.82 434.511 1434.59 415.958L1490.25 466.051L1506.95 480.893C1499.53 489.242 1492.11 496.663 1483.76 503.157ZM1779.68 700.745L1749.06 500.374L1706.39 610.763L1642.38 472.545H1641.46L1616.41 633.027L1509.73 614.474L1524.57 525.42C1528.28 521.71 1532.92 517.999 1536.63 513.361L1570.96 478.11L1537.56 447.498L1573.74 234.14H1681.34L1708.25 381.635L1738.86 210.949H1815.85L1848.32 418.741C1807.5 465.123 1788.02 527.275 1801.01 584.789C1811.22 629.316 1839.04 664.567 1878.01 685.903C1881.72 687.758 1886.35 689.613 1890.06 691.468L1893.78 718.37L1779.68 700.745ZM2045.91 634.882C2033.85 643.231 2020.86 650.652 2006.95 655.29C1979.12 665.494 1952.22 668.277 1927.17 662.712C1910.47 659.001 1894.7 652.507 1880.79 643.231C1859.45 627.461 1843.68 605.198 1836.26 576.441C1827.91 542.118 1835.33 505.012 1853.89 472.545C1863.16 456.775 1875.22 441.932 1889.14 428.945C1904.91 415.031 1923.46 402.971 1942.94 395.55C1990.25 377.925 2036.63 384.418 2069.1 407.609C2081.16 415.958 2091.36 427.09 2098.78 440.077C2104.35 450.281 2108.99 461.413 2111.77 473.472C2121.98 515.216 2109.92 559.743 2083.94 594.994C2075.59 610.764 2061.68 623.75 2045.91 634.882ZM2287.1 824.122L2208.25 800.93L2201.75 509.65L2161.86 734.14L2075.59 720.225L2082.09 655.29C2138.67 607.981 2168.36 532.841 2151.66 464.196C2144.24 434.511 2129.4 407.609 2107.13 388.129L2114.55 312.062L2082.09 303.713L2083.01 262.897L2231.44 292.582L2281.53 529.131L2332.55 316.7L2445.72 341.747L2287.1 824.122Z" fill="url(#paint8_linear_3_2)"/>
<defs>
<linearGradient id="paint0_linear_3_2" x1="123.377" y1="496.756" x2="30.4452" y2="323.584" gradientUnits="userSpaceOnUse">
<stop stop-color="#0070B6"/>
<stop offset="1" stop-color="#1D2C5E"/>
</linearGradient>
<linearGradient id="paint1_linear_3_2" x1="1256.73" y1="142.971" x2="1374.68" y2="16.589" gradientUnits="userSpaceOnUse">
<stop stop-color="#0070B6"/>
<stop offset="1" stop-color="#1D2C5E"/>
</linearGradient>
<linearGradient id="paint2_linear_3_2" x1="742.134" y1="353.676" x2="728.071" y2="235.513" gradientUnits="userSpaceOnUse">
<stop stop-color="#0070B6"/>
<stop offset="1" stop-color="#1D2C5E"/>
</linearGradient>
<linearGradient id="paint3_linear_3_2" x1="2030.58" y1="330.93" x2="2024.96" y2="224.27" gradientUnits="userSpaceOnUse">
<stop stop-color="#125D9E"/>
<stop offset="1" stop-color="#1D2C5E"/>
</linearGradient>
<linearGradient id="paint4_linear_3_2" x1="1636.93" y1="177.192" x2="1513.14" y2="374.112" gradientUnits="userSpaceOnUse">
<stop stop-color="#125D9E"/>
<stop offset="1" stop-color="#1D2C5E"/>
</linearGradient>
<linearGradient id="paint5_linear_3_2" x1="541.466" y1="493.036" x2="625.863" y2="659.019" gradientUnits="userSpaceOnUse">
<stop stop-color="#105FA1"/>
<stop offset="1" stop-color="#1D2C5E"/>
</linearGradient>
<linearGradient id="paint6_linear_3_2" x1="223.015" y1="436.385" x2="320.696" y2="662.823" gradientUnits="userSpaceOnUse">
<stop stop-color="#105FA1"/>
<stop offset="1" stop-color="#1D2C5E"/>
</linearGradient>
<linearGradient id="paint7_linear_3_2" x1="651.716" y1="520.504" x2="799.481" y2="520.504" gradientUnits="userSpaceOnUse">
<stop stop-color="#3C5AA6"/>
<stop offset="0.933" stop-color="#2B73B9"/>
<stop offset="1" stop-color="#2A75BB"/>
</linearGradient>
<linearGradient id="paint8_linear_3_2" x1="34.564" y1="444.446" x2="2499.71" y2="444.446" gradientUnits="userSpaceOnUse">
<stop stop-color="#3C5AA6"/>
<stop offset="0.933" stop-color="#2B73B9"/>
<stop offset="1" stop-color="#2A75BB"/>
</linearGradient>
</defs>
</svg>
